<svg xmlns="http://www.w3.org/2000/svg" viewBox="0 0 5.27 6.11">
  <defs>
    <style>.cls-1{fill:#262c38;}</style>
  </defs>
  <title>Fichier 1</title>
  <g id="Calque_2" data-name="Calque 2">
    <g id="Calque_1-2" data-name="Calque 1">
      <path class="cls-1" d="M.06,6.08H0s0,0,0,0l1.73-3V3H5.22a0,0,0,0,1,0,0s0,0,0,0l-5.15,3Z"/>
      <path class="cls-1"
            d="M5.2,3.05h0l-5.15,3,1.73-3H5.2M5.2,3H1.79a.05.05,0,0,0-.05,0,0,0,0,0,0,0,0L0,6a0,0,0,0,0,0,.07l0,0h0l5.15-3a.06.06,0,0,0,0-.06.05.05,0,0,0,0,0h0Z"/>
      <path class="cls-1" d="M1.79,3.08l0,0L0,.07A0,0,0,0,1,0,0s0,0,0,0h0L5.21,3a.05.05,0,0,1,0,0l0,0Z"/>
      <path class="cls-1"
            d="M.06.06l5.14,3H1.79L.06.06M.06,0,0,0A0,0,0,0,0,0,.09l1.73,3a.05.05,0,0,0,.05,0H5.2a.05.05,0,0,0,0,0,0,0,0,0,0,0-.06L.09,0Z"/>
    </g>
  </g>
</svg>
